<svg width="44" height="45" viewBox="0 0 44 45" fill="none" xmlns="http://www.w3.org/2000/svg">
  <style>
    path { fill: black; }
    @media (prefers-color-scheme: dark) {
      path { fill: white; }
    }
  </style>
  <path
    fill-rule="evenodd"
    clip-rule="evenodd"
    d="M9.00052 6.3584H16.3467V20.2046C16.3467 23.8864 13.3619 26.8712 9.68002 26.8712H6.50053V8.8584C6.50053 7.47769 7.61981 6.3584 9.00052 6.3584ZM35.32 17.8456C31.6381 17.8456 28.6533 20.8303 28.6533 24.5122V38.3584H35.9995C37.3802 38.3584 38.4995 37.2391 38.4995 35.8584V17.8456H35.32ZM24.654 16.2046C20.9721 16.2046 17.9873 13.2198 17.9873 9.53792V6.35844L36.0001 6.35844C37.3808 6.35844 38.5001 7.47772 38.5001 8.85844L38.5001 16.2046H24.654ZM6.5 35.8584C6.5 37.2391 7.61929 38.3584 9 38.3584H27.0128V35.1789C27.0128 31.497 24.0281 28.5122 20.3462 28.5122H6.5V35.8584Z"
  />
</svg>
